<svg width="86" height="100" viewBox="0 0 86 100" fill="none" xmlns="http://www.w3.org/2000/svg">
<path d="M66.9639 89.2852L42.8574 96.4287L18.75 89.2852L27.1113 63.9697H58.0186L66.9639 89.2852Z" fill="#FFD900"/>
<path d="M43.9629 0.0136719C67.1212 0.600168 85.7139 19.5578 85.7139 42.8574V57.1426C85.7139 80.8118 66.5266 99.9998 42.8574 100L41.751 99.9863C18.593 99.3995 0 80.442 0 57.1426V42.8574C0 19.1882 19.1882 0.000148458 42.8574 0L43.9629 0.0136719ZM22.4629 87.123C28.2738 91.0837 35.2949 93.4003 42.8574 93.4004C50.4197 93.4003 57.4404 91.0834 63.251 87.123L55.3574 66.0713H30.3584L22.4629 87.123ZM42.8574 6.59961C22.8333 6.59976 6.59961 22.8332 6.59961 42.8574V57.1426C6.59961 67.0985 10.6138 76.1165 17.1104 82.6689L38.0029 21.4287H47.7119L68.6035 82.6689C75.1002 76.1164 79.1143 67.0987 79.1143 57.1426V42.8574C79.1143 22.8332 62.8816 6.59976 42.8574 6.59961ZM37.501 44.6436H48.2148L42.8574 28.5742L37.501 44.6436Z" fill="black"/>
<path d="M48.2134 44.6436H37.5005L42.8569 28.5742L48.2134 44.6436Z" fill="white"/>
</svg>
