<svg width="100" height="100" viewBox="0 0 100 100" fill="none" xmlns="http://www.w3.org/2000/svg">
<path d="M42.7497 32.5127C50.097 32.5127 54.3804 40.8076 50.1267 46.7984L32.7525 71.2671L69.1687 71.2662C74.5423 71.2662 77.2335 77.7632 73.4338 81.563L58.53 96.4668C53.819 101.178 46.181 101.178 41.47 96.4668L3.53323 58.53C-1.17775 53.819 -1.17774 46.181 3.53323 41.47L10.7238 34.2792C11.8549 33.1481 13.3892 32.5127 14.9889 32.5127H42.7497Z" fill="#FF4500"/>
<path d="M41.47 3.53323C46.181 -1.17773 53.819 -1.17775 58.53 3.53323L96.4668 41.47C101.178 46.181 101.178 53.819 96.4668 58.53L89.1446 65.8522C88.0135 66.9833 86.4792 67.6187 84.8795 67.6187H57.3107C49.9634 67.6186 45.68 59.324 49.9338 53.3333L67.308 28.8646L30.6997 28.8652C25.3261 28.8652 22.6351 22.3681 26.4349 18.5684L41.47 3.53323Z" fill="#FF4500"/>
</svg>
