<svg width="157" height="103" viewBox="0 0 157 103" fill="none" xmlns="http://www.w3.org/2000/svg">
<g clip-path="url(#clip0_3_158)">
<path d="M16.07 41.2699C15.99 43.8599 18.02 46.0299 20.61 46.1099C23.2 46.1899 25.37 44.1599 25.45 41.5699C25.53 38.9799 23.5 36.8099 20.91 36.7299C18.32 36.6499 16.15 38.6799 16.07 41.2699Z" fill="#4B6DFF"/>
<path d="M154.96 55.98C153.52 55.45 151.92 56.18 151.39 57.62L151.33 57.78C151.03 58.6 150.76 59.44 150.42 60.23C150.25 60.62 150.11 61.04 149.92 61.41L149.39 62.55L148.81 63.64C148.61 63.99 148.39 64.32 148.19 64.67C147.76 65.33 147.3 65.94 146.82 66.51C146.57 66.79 146.31 67.04 146.06 67.31C145.78 67.55 145.53 67.8 145.25 68.03C144.96 68.25 144.7 68.49 144.38 68.68C144.08 68.89 143.78 69.09 143.45 69.27C143.14 69.46 142.79 69.64 142.45 69.81C142.12 69.99 141.74 70.15 141.38 70.32C140.65 70.65 139.86 70.96 139.06 71.26L136.55 72.21L136.63 75.25C136.76 77.87 136.82 80.48 136.76 83.03C136.69 85.57 136.5 88.11 136.05 90.34C135.83 91.44 135.51 92.48 135.16 93.17C135.04 93.41 134.93 93.58 134.84 93.7L134.59 93.62C134.59 93.62 134.54 93.6 134.56 93.61L134.48 93.57L134.32 93.5L133.99 93.36C133.14 92.95 132.48 92.52 131.78 91.85C131.08 91.19 130.27 90.21 129.26 89.1C128.25 88 127.08 86.83 125.81 85.85C124.52 84.86 123.25 84.01 121.83 83.24L120.76 82.66C120.4 82.47 120.13 82.36 119.82 82.2L118.9 81.77L118.56 81.61L118.28 81.49L117.72 81.26C114.74 80.1 111.89 79.47 109.05 78.97C106.21 78.47 103.4 78.17 100.59 77.95C94.98 77.54 89.38 77.54 83.76 77.95C80.95 78.15 78.13 78.49 75.29 78.99C73.87 79.25 72.44 79.54 70.99 79.92C70.26 80.1 69.55 80.32 68.79 80.56L67.6 80.97L66.65 81.35L66.31 81.49L66.05 81.61L65.54 81.84L64.52 82.31C63.84 82.63 63.16 83.02 62.48 83.37C61.13 84.15 59.78 85.01 58.52 86.06C57.26 87.08 56.07 88.27 55.1 89.38C54.12 90.49 53.37 91.39 52.72 91.95L52.23 92.35C52.06 92.46 51.89 92.57 51.72 92.69C51.58 92.76 51.44 92.83 51.31 92.92C51.29 92.95 51.07 93.04 50.93 93.1L50.46 93.3C50.36 93.35 50.3 93.36 50.23 93.39C50.13 93.23 50.01 93.02 49.9 92.75C49.57 91.98 49.29 90.93 49.09 89.81C48.68 87.55 48.52 85.02 48.48 82.48C48.44 79.93 48.52 77.32 48.67 74.71C48.78 72.91 48.92 71.09 49.08 69.28C50.6 69.36 52.12 69.42 53.64 69.49L69.84 70.12C80.66 70.5 91.53 70.88 102.58 70.39C108.1 70.12 113.68 69.66 119.32 68.52C122.14 67.93 124.98 67.19 127.82 66.06C130.64 64.93 133.49 63.43 136.03 61.18C138.58 58.97 140.65 55.85 141.65 52.52C142.16 50.86 142.44 49.17 142.53 47.53C142.57 47.11 142.56 46.71 142.57 46.3V45.99V45.61V45.1C142.53 44.42 142.53 43.79 142.45 42.96C142.34 41.36 142.16 39.92 141.89 38.44C141.76 37.7 141.63 36.97 141.45 36.24C141.29 35.51 141.11 34.78 140.9 34.06C140.09 31.18 138.98 28.38 137.61 25.72C134.87 20.4 131.04 15.64 126.47 11.81C121.9 7.98 116.62 5.01 111.04 3.12C105.42 1.21 99.59 0.24 93.81 0.05L91.64 0C90.78 0 90.27 0.01 89.5 0.04C87.94 0.11 86.48 0.21 85.01 0.41C82.07 0.78 79.15 1.41 76.31 2.34C70.62 4.16 65.26 7.16 60.74 11.11C56.2 15.04 52.54 19.88 49.8 25.07C48.43 27.67 47.28 30.36 46.32 33.09C46.06 33.77 45.85 34.46 45.63 35.15C45.41 35.84 45.19 36.53 45.01 37.22L44.72 38.26L44.56 38.84L44.44 39.33C44.29 39.95 44.1 40.8 43.97 41.46C42.86 46.96 42.05 52.33 41.34 57.78C41.22 58.68 41.14 59.58 41.03 60.48C40.03 60.4 39.02 60.31 38.03 60.21C32.83 59.67 27.69 58.85 22.93 57.38C18.21 55.92 13.82 53.71 11.15 50.46C9.81001 48.85 8.91001 47 8.44001 44.93C7.98001 42.88 7.89001 40.52 8.25001 38.54C8.95001 34.52 11.81 31.13 15.73 29.57C17.67 28.81 19.81 28.46 21.87 28.69C23.92 28.93 25.87 29.66 27.48 30.94C29.08 32.22 30.38 34 31.24 36.12C31.67 37.18 32.02 38.3 32.26 39.48C32.39 40.06 32.49 40.68 32.58 41.26C32.62 41.56 32.67 41.82 32.69 42.16L32.78 43.17C32.88 44.39 33.87 45.37 35.12 45.43C36.48 45.5 37.64 44.45 37.71 43.08L37.76 42.07C37.78 41.73 37.76 41.32 37.77 40.95C37.77 40.18 37.74 39.46 37.67 38.71C37.53 37.22 37.27 35.7 36.83 34.2C35.95 31.22 34.32 28.24 31.84 25.96C29.4 23.65 26.2 22.14 22.91 21.6C19.62 21.04 16.23 21.37 13.11 22.47C9.99001 23.57 7.11001 25.46 4.86001 27.99C2.62001 30.53 1.08001 33.72 0.430012 37C-0.219988 40.33 -0.0899876 43.47 0.590012 46.69C1.28001 49.9 2.79001 53.04 4.91001 55.59C7.01001 58.16 9.60001 60.13 12.27 61.65C14.95 63.17 17.72 64.28 20.5 65.16C26.06 66.9 31.65 67.79 37.17 68.39C38.18 68.5 39.19 68.59 40.2 68.68C40.04 70.52 39.87 72.35 39.76 74.21C39.6 76.99 39.52 79.78 39.56 82.63C39.61 85.48 39.77 88.36 40.31 91.42C40.6 92.95 40.97 94.54 41.69 96.26C42.07 97.12 42.52 98.03 43.23 98.96C43.93 99.88 44.93 100.88 46.31 101.56C47.67 102.26 49.31 102.49 50.63 102.36C51.96 102.25 53.09 101.85 53.96 101.46L54.42 101.26C54.59 101.18 54.69 101.15 54.95 101.01C55.41 100.77 55.87 100.52 56.32 100.26L57.49 99.46C57.86 99.18 58.21 98.88 58.57 98.58C59.95 97.35 60.89 96.14 61.7 95.23C62.51 94.3 63.24 93.58 64.07 92.89C64.88 92.2 65.82 91.61 66.79 91.03C67.31 90.76 67.8 90.47 68.34 90.22L69.89 89.51C74.11 87.8 79.31 87.07 84.42 86.63C89.57 86.23 94.8 86.19 99.96 86.55C102.54 86.73 105.1 87 107.58 87.42C110.05 87.84 112.5 88.4 114.56 89.2L114.94 89.35L115.12 89.42H115.14L115.25 89.47L116.17 89.9C116.46 90.04 116.82 90.19 117.05 90.32L117.76 90.71C118.72 91.22 119.7 91.87 120.55 92.52C121.42 93.18 122.17 93.92 122.99 94.81C123.81 95.69 124.7 96.8 125.97 98C127.22 99.2 128.84 100.28 130.44 101.01L131.04 101.27L131.34 101.4L131.49 101.46C131.63 101.51 131.4 101.44 131.83 101.59L132.31 101.75L132.43 101.79L132.67 101.85L133.19 101.97C133.93 102.13 134.49 102.17 135.21 102.16C135.9 102.15 136.64 102.03 137.35 101.81C138.79 101.37 140.02 100.48 140.85 99.57C141.69 98.66 142.22 97.75 142.66 96.88C143.5 95.14 143.9 93.55 144.22 92.02C144.83 88.95 144.99 86.08 145.06 83.23C145.1 81.26 145.06 79.33 144.99 77.4C145.03 77.38 145.07 77.36 145.11 77.33C145.56 77.05 146 76.79 146.45 76.47C146.9 76.17 147.34 75.86 147.77 75.51C148.21 75.18 148.63 74.82 149.05 74.44C149.48 74.08 149.86 73.66 150.26 73.27C150.65 72.86 151 72.42 151.37 72C151.7 71.55 152.04 71.11 152.35 70.65C152.96 69.73 153.49 68.78 153.95 67.83C154.16 67.35 154.39 66.87 154.59 66.39L155.14 64.95L155.61 63.51C155.77 63.03 155.88 62.55 156.02 62.07C156.3 61.11 156.48 60.16 156.7 59.21C157.02 57.86 156.29 56.46 154.96 55.97V55.98ZM50.16 58.92C50.84 53.66 51.65 48.35 52.68 43.27C53.71 38.42 55.38 33.57 57.66 29.23C59.96 24.88 62.94 20.97 66.58 17.83C70.2 14.67 74.45 12.29 79.05 10.82C81.34 10.07 83.72 9.55 86.14 9.25C87.34 9.08 88.59 9 89.72 8.94C90.29 8.92 91.14 8.91 91.63 8.9L93.51 8.94C98.52 9.11 103.45 9.94 108.09 11.55C112.73 13.13 117.04 15.53 120.75 18.62C124.46 21.71 127.55 25.52 129.78 29.78C130.89 31.91 131.79 34.16 132.45 36.47C132.63 37.04 132.77 37.63 132.9 38.22C133.05 38.8 133.16 39.39 133.27 39.99C133.49 41.16 133.64 42.41 133.72 43.5C133.78 44.01 133.8 44.74 133.82 45.4L133.84 45.91V46C133.84 46 133.84 46.01 133.84 46.04V46.24C133.83 46.51 133.84 46.78 133.81 47.04C133.75 48.09 133.59 49.08 133.31 50C132.75 51.84 131.75 53.41 130.23 54.75C127.2 57.47 122.43 59.11 117.54 60.14C112.6 61.16 107.38 61.64 102.12 61.91C91.58 62.42 80.84 62.1 70.08 61.76L53.9 61.2C52.56 61.15 51.22 61.1 49.89 61.04C49.98 60.34 50.06 59.63 50.15 58.93L50.16 58.92ZM135.04 93.78L134.98 93.76H135.01C134.94 93.76 135.06 93.76 135.01 93.76C135.01 93.76 135.03 93.76 135.04 93.78Z" fill="#4B6DFF"/>
</g>
<defs>
<clipPath id="clip0_3_158">
<rect width="156.78" height="102.4" fill="white"/>
</clipPath>
</defs>
</svg>
