<svg width="324" height="323" viewBox="0 0 324 323" fill="none" xmlns="http://www.w3.org/2000/svg">
<path d="M324 132.148V79.289C324 76.0587 321.349 73.4158 318.109 73.4158H241.292C238.199 73.4158 235.666 71.0371 235.43 67.983C232.632 30.0417 200.762 0 162 0C123.238 0 91.368 30.0417 88.5698 67.983C88.3342 71.0371 85.8011 73.4158 82.7084 73.4158H5.89091C2.65091 73.4158 0 76.0587 0 79.289V140.958C0 144.189 2.65091 146.832 5.89091 146.832H23.5636C26.8036 146.832 29.4545 144.189 29.4545 140.958V108.655C29.4545 105.425 32.1055 102.782 35.3455 102.782H82.4727C85.7127 102.782 88.3636 105.425 88.3636 108.655V159.929C88.3636 162.631 86.508 164.98 83.8865 165.626L4.47709 185.155C1.85564 185.801 0 188.15 0 190.852V243.711C0 246.941 2.65091 249.584 5.89091 249.584H82.7084C85.8011 249.584 88.3342 251.963 88.5698 255.017C91.368 292.958 123.238 323 162 323C200.762 323 232.632 292.958 235.43 255.017C235.666 251.963 238.199 249.584 241.292 249.584H318.109C321.349 249.584 324 246.941 324 243.711V182.042C324 178.811 321.349 176.168 318.109 176.168H300.436C297.196 176.168 294.545 178.811 294.545 182.042V214.345C294.545 217.575 291.895 220.218 288.655 220.218H123.709C120.469 220.218 117.818 217.575 117.818 214.345V192.085C117.818 189.383 119.674 187.034 122.295 186.388L319.523 137.845C322.144 137.199 324 134.85 324 132.148ZM162 29.3663C184.032 29.3663 202.323 45.5178 205.652 66.5441C206.211 70.1267 203.472 73.4158 199.82 73.4158H124.18C120.528 73.4158 117.789 70.1561 118.348 66.5441C121.677 45.5178 139.968 29.3663 162 29.3663ZM123.709 102.782H288.655C291.895 102.782 294.545 105.425 294.545 108.655V109.155C294.545 111.856 292.69 114.206 290.068 114.852L125.123 155.465C121.412 156.376 117.818 153.586 117.818 149.768V108.655C117.818 105.425 120.469 102.782 123.709 102.782ZM199.82 249.614C203.472 249.614 206.211 252.873 205.652 256.485C202.323 277.512 184.032 293.663 162 293.663C139.968 293.663 121.677 277.512 118.348 256.485C117.789 252.903 120.528 249.614 124.18 249.614H199.82ZM82.4727 220.247H35.3455C32.1055 220.247 29.4545 217.604 29.4545 214.374V213.875C29.4545 211.173 31.3102 208.824 33.9316 208.178L81.0589 196.578C84.7702 195.668 88.3636 198.457 88.3636 202.275V214.374C88.3636 217.604 85.7127 220.247 82.4727 220.247Z" fill="#3D1414"/>
</svg>
